<svg xmlns="http://www.w3.org/2000/svg" width="920" height="530">
<rect width="920" height="530" fill="#1e1e2e"/>
<rect x="78" y="72" width="802" height="363" fill="#181825" rx="4"/>
<text x="479" y="48" text-anchor="middle" font-family="monospace,sans-serif" font-size="17" font-weight="bold" fill="#cdd6f4">5 medium numbers [2,4,6,8,10]</text>
<line x1="78" y1="362.4" x2="880" y2="362.4" stroke="#45475a" stroke-width="1" stroke-dasharray="4,4"/>
<text x="73.0" y="366.4" text-anchor="end" font-family="monospace" font-size="11" fill="#6c7086">145</text>
<line x1="78" y1="289.8" x2="880" y2="289.8" stroke="#45475a" stroke-width="1" stroke-dasharray="4,4"/>
<text x="73.0" y="293.8" text-anchor="end" font-family="monospace" font-size="11" fill="#6c7086">290</text>
<line x1="78" y1="217.2" x2="880" y2="217.2" stroke="#45475a" stroke-width="1" stroke-dasharray="4,4"/>
<text x="73.0" y="221.2" text-anchor="end" font-family="monospace" font-size="11" fill="#6c7086">434</text>
<line x1="78" y1="144.6" x2="880" y2="144.6" stroke="#45475a" stroke-width="1" stroke-dasharray="4,4"/>
<text x="73.0" y="148.6" text-anchor="end" font-family="monospace" font-size="11" fill="#6c7086">579</text>
<line x1="78" y1="72.0" x2="880" y2="72.0" stroke="#45475a" stroke-width="1" stroke-dasharray="4,4"/>
<text x="73.0" y="76.0" text-anchor="end" font-family="monospace" font-size="11" fill="#6c7086">724</text>
<text x="73.0" y="439.0" text-anchor="end" font-family="monospace" font-size="11" fill="#6c7086">0</text>
<rect x="79.0" y="81.5" width="24.7" height="353.5" fill="#89b4fa" opacity="0.82" rx="2"/>
<rect x="266.1" y="363.3" width="24.7" height="71.7" fill="#89b4fa" opacity="0.82" rx="2"/>
<rect x="292.9" y="347.3" width="24.7" height="87.7" fill="#89b4fa" opacity="0.82" rx="2"/>
<rect x="319.6" y="72.0" width="24.7" height="363.0" fill="#89b4fa" opacity="0.82" rx="2"/>
<rect x="346.3" y="434.5" width="24.7" height="0.5" fill="#89b4fa" opacity="0.82" rx="2"/>
<rect x="373.1" y="431.5" width="24.7" height="3.5" fill="#89b4fa" opacity="0.82" rx="2"/>
<rect x="399.8" y="417.5" width="24.7" height="17.5" fill="#89b4fa" opacity="0.82" rx="2"/>
<rect x="426.5" y="404.4" width="24.7" height="30.6" fill="#89b4fa" opacity="0.82" rx="2"/>
<rect x="453.3" y="391.9" width="24.7" height="43.1" fill="#89b4fa" opacity="0.82" rx="2"/>
<rect x="480.0" y="414.9" width="24.7" height="20.1" fill="#89b4fa" opacity="0.82" rx="2"/>
<rect x="506.7" y="429.0" width="24.7" height="6.0" fill="#89b4fa" opacity="0.82" rx="2"/>
<rect x="533.5" y="433.0" width="24.7" height="2.0" fill="#89b4fa" opacity="0.82" rx="2"/>
<rect x="586.9" y="434.5" width="24.7" height="0.5" fill="#89b4fa" opacity="0.82" rx="2"/>
<rect x="640.4" y="434.5" width="24.7" height="0.5" fill="#89b4fa" opacity="0.82" rx="2"/>
<rect x="667.1" y="434.5" width="24.7" height="0.5" fill="#89b4fa" opacity="0.82" rx="2"/>
<rect x="693.9" y="434.5" width="24.7" height="0.5" fill="#89b4fa" opacity="0.82" rx="2"/>
<rect x="747.3" y="434.0" width="24.7" height="1.0" fill="#89b4fa" opacity="0.82" rx="2"/>
<rect x="854.3" y="434.5" width="24.7" height="0.5" fill="#89b4fa" opacity="0.82" rx="2"/>
<line x1="267.4" y1="72" x2="267.4" y2="435" stroke="#f38ba8" stroke-width="2.5" stroke-dasharray="7,4"/>
<text x="267.4" y="63.0" text-anchor="middle" font-family="monospace" font-size="12" font-weight="bold" fill="#f38ba8">▲ 30</text>
<line x1="78.0" y1="435" x2="78.0" y2="440.0" stroke="#6c7086" stroke-width="1"/>
<text x="78.0" y="452.0" text-anchor="middle" font-family="monospace" font-size="11" fill="#6c7086">0</text>
<line x1="158.2" y1="435" x2="158.2" y2="440.0" stroke="#6c7086" stroke-width="1"/>
<text x="158.2" y="452.0" text-anchor="middle" font-family="monospace" font-size="11" fill="#6c7086">13</text>
<line x1="238.4" y1="435" x2="238.4" y2="440.0" stroke="#6c7086" stroke-width="1"/>
<text x="238.4" y="452.0" text-anchor="middle" font-family="monospace" font-size="11" fill="#6c7086">25</text>
<line x1="318.6" y1="435" x2="318.6" y2="440.0" stroke="#6c7086" stroke-width="1"/>
<text x="318.6" y="452.0" text-anchor="middle" font-family="monospace" font-size="11" fill="#6c7086">38</text>
<line x1="398.8" y1="435" x2="398.8" y2="440.0" stroke="#6c7086" stroke-width="1"/>
<text x="398.8" y="452.0" text-anchor="middle" font-family="monospace" font-size="11" fill="#6c7086">51</text>
<line x1="479.0" y1="435" x2="479.0" y2="440.0" stroke="#6c7086" stroke-width="1"/>
<text x="479.0" y="452.0" text-anchor="middle" font-family="monospace" font-size="11" fill="#6c7086">64</text>
<line x1="559.2" y1="435" x2="559.2" y2="440.0" stroke="#6c7086" stroke-width="1"/>
<text x="559.2" y="452.0" text-anchor="middle" font-family="monospace" font-size="11" fill="#6c7086">76</text>
<line x1="639.4" y1="435" x2="639.4" y2="440.0" stroke="#6c7086" stroke-width="1"/>
<text x="639.4" y="452.0" text-anchor="middle" font-family="monospace" font-size="11" fill="#6c7086">89</text>
<line x1="719.6" y1="435" x2="719.6" y2="440.0" stroke="#6c7086" stroke-width="1"/>
<text x="719.6" y="452.0" text-anchor="middle" font-family="monospace" font-size="11" fill="#6c7086">102</text>
<line x1="799.8" y1="435" x2="799.8" y2="440.0" stroke="#6c7086" stroke-width="1"/>
<text x="799.8" y="452.0" text-anchor="middle" font-family="monospace" font-size="11" fill="#6c7086">114</text>
<line x1="880.0" y1="435" x2="880.0" y2="440.0" stroke="#6c7086" stroke-width="1"/>
<text x="880.0" y="452.0" text-anchor="middle" font-family="monospace" font-size="11" fill="#6c7086">127</text>
<line x1="78" y1="435" x2="880" y2="435" stroke="#cdd6f4" stroke-width="1.5"/>
<line x1="78" y1="72" x2="78" y2="435" stroke="#cdd6f4" stroke-width="1.5"/>
<text x="479" y="520" text-anchor="middle" font-family="monospace" font-size="13" fill="#a6adc8">Score</text>
<text x="22" y="254" text-anchor="middle" font-family="monospace" font-size="13" fill="#a6adc8" transform="rotate(-90 22 254)">Count</text>
<rect x="88" y="473" width="12" height="12" fill="#89b4fa" opacity="0.82" rx="2"/>
<text x="106" y="483" font-family="monospace" font-size="12" fill="#cdd6f4">Draw distribution (n=2000)</text>
<line x1="308" y1="478" x2="338" y2="478" stroke="#f38ba8" stroke-width="2.5" stroke-dasharray="7,4"/>
<text x="348" y="483" font-family="monospace" font-size="12" fill="#cdd6f4">Stop score (30)</text>
</svg>